<svg xmlns="http://www.w3.org/2000/svg" version="1.0" viewBox="0 0 625 625"><path fill="#80BFBF" fill-opacity=".1" d="M178.8 287.7c.7.3 1.6.2 1.9-.1.4-.3-.2-.6-1.3-.5-1.1 0-1.4.3-.6.6m22.5.8c0 .8.7 1.5 1.5 1.5 1.2 0 1.2-.3.2-1.5-.7-.8-1.3-1.5-1.5-1.5-.1 0-.2.7-.2 1.5M94.5 303.2l-4 4.3 4.3-4c3.9-3.6 4.7-4.5 3.9-4.5-.2 0-2.1 1.9-4.2 4.2m25.2-3.5c-.4.3-.7 1.1-.7 1.7s.5.5 1.2-.2c.6-.6.9-1.4.7-1.7-.3-.3-.9-.2-1.2.2m-.8 10c-1.3 1.6-1.2 1.7.4.4.9-.7 1.7-1.5 1.7-1.7 0-.8-.8-.3-2.1 1.3m-12.9 4.4c0 .5.5.7 1 .4.6-.3 1-.8 1-1.1 0-.2-.4-.4-1-.4-.5 0-1 .5-1 1.1"/><path fill="#80BFBF" fill-opacity=".2" d="M180 284.1c0 .5.5.7 1 .4.6-.3 1-.8 1-1.1 0-.2-.4-.4-1-.4-.5 0-1 .5-1 1.1m18.5 4.9c-1 1.1-1.3 2-.7 2s1.7.3 2.6.6 1.6.1 1.6-.5-.8-1.1-1.7-1.2c-1.6 0-1.6-.1.1-.8 1.2-.4 1.5-1 .9-1.4s-1.8.2-2.8 1.3m-84.1 15.2-1.9 2.3 2.3-1.9c2.1-1.8 2.7-2.6 1.9-2.6-.2 0-1.2 1-2.3 2.2m1.5 8.5c-1.3 1.6-1.2 1.7.4.4.9-.7 1.7-1.5 1.7-1.7 0-.8-.8-.3-2.1 1.3"/><path fill="#80BFBF" fill-opacity=".3" d="M168.8 282.7c.7.3 1.6.2 1.9-.1.4-.3-.2-.6-1.3-.5-1.1 0-1.4.3-.6.6M158 284c.8.5 2 1 2.5 1 .6 0 .3-.5-.5-1s-1.9-1-2.5-1c-.5 0-.3.5.5 1m39.5 3c-.3.5.1 1 1 1s1.3-.5 1-1c-.3-.6-.8-1-1-1s-.7.4-1 1m-3 2c-.4.6.3 1 1.4 1 2.5 0 2.7-.6.6-1.3-.8-.4-1.7-.2-2 .3m-78.6 15.7c-1.3 1.6-1.2 1.7.4.4.9-.7 1.7-1.5 1.7-1.7 0-.8-.8-.3-2.1 1.3"/><path fill="#80BFBF" fill-opacity=".4" d="M164.3 282.7c.9.2 2.3.2 3 0 .6-.3-.1-.5-1.8-.5-1.6 0-2.2.2-1.2.5m7.5 0c.7.3 1.6.2 1.9-.1.4-.3-.2-.6-1.3-.5-1.1 0-1.4.3-.6.6m3 2c.6.2 1.8.2 2.5 0 .6-.3.1-.5-1.3-.5s-1.9.2-1.2.5m16.7 3.3c-.4.6.3 1 1.4 1 2.5 0 2.7-.6.6-1.3-.8-.4-1.7-.2-2 .3m-79.1 20.2-1.9 2.3 2.3-1.9c2.1-1.8 2.7-2.6 1.9-2.6-.2 0-1.2 1-2.3 2.2"/><path fill="#80BFBF" fill-opacity=".5" d="M154.3 277.7c2 .2 5.4.2 7.5 0 2-.2.3-.4-3.8-.4s-5.8.2-3.7.4m20.5 5c.6.2 1.8.2 2.5 0 .6-.3.1-.5-1.3-.5s-1.9.2-1.2.5m-10.5 2c.9.2 2.3.2 3 0 .6-.3-.1-.5-1.8-.5-1.6 0-2.2.2-1.2.5m7.5 0c.7.3 1.6.2 1.9-.1.4-.3-.2-.6-1.3-.5-1.1 0-1.4.3-.6.6m-.5 2c1.5.2 3.7.2 5 0 1.2-.2 0-.4-2.8-.4-2.7 0-3.8.2-2.2.4m15.1.4c-.3.5.9.9 2.5.9 1.7 0 3.1-.2 3.1-.4 0-.8-5.1-1.3-5.6-.5m-91.5 16.6-2.4 2.8 2.8-2.4c2.5-2.3 3.2-3.1 2.4-3.1-.2 0-1.4 1.2-2.8 2.7m-23.8 42.9c0 1.1.3 1.4.6.6.3-.7.2-1.6-.1-1.9-.3-.4-.6.2-.5 1.3"/><path fill="#80BFBF" fill-opacity=".6" d="M168.8 284.7c.7.3 1.6.2 1.9-.1.4-.3-.2-.6-1.3-.5-1.1 0-1.4.3-.6.6m10.7 1.3c-1.6.7-1.7.9-.3.9.9.1 2-.4 2.3-.9.7-1.1.7-1.1-2 0m-68.1 20.2-2.9 3.3 3.3-2.9c1.7-1.7 3.2-3.1 3.2-3.3 0-.8-.8-.1-3.6 2.9m6.5 3.5-3.4 3.8 3.8-3.4c2-1.9 3.7-3.6 3.7-3.8 0-.8-.8 0-4.1 3.4"/><path fill="#80BFBF" fill-opacity=".7" d="M180.9 286.3c.5.5 1.9.7 3.2.5 2-.3 1.9-.5-.9-.9-2-.3-2.9-.2-2.3.4"/><path fill="#80BFBF" fill-opacity=".8" d="M168.8 281.7c.7.3 1.6.2 1.9-.1.4-.3-.2-.6-1.3-.5-1.1 0-1.4.3-.6.6m-69.9 19c-1.3 1.6-1.2 1.7.4.4.9-.7 1.7-1.5 1.7-1.7 0-.8-.8-.3-2.1 1.3m-6.5 6.5-1.9 2.3 2.3-1.9c1.2-1.1 2.2-2.1 2.2-2.3 0-.8-.8-.2-2.6 1.9m21.5.5-2.4 2.8 2.8-2.4c2.5-2.3 3.2-3.1 2.4-3.1-.2 0-1.4 1.2-2.8 2.7"/><path fill="#80BFBF" fill-opacity=".9" d="M164.3 281.7c.9.2 2.3.2 3 0 .6-.3-.1-.5-1.8-.5-1.6 0-2.2.2-1.2.5m7.5 0c.7.3 1.6.2 1.9-.1.4-.3-.2-.6-1.3-.5-1.1 0-1.4.3-.6.6m-10.3 4.3c.3.5 1.1 1 1.6 1 .6 0 .7-.5.4-1-.3-.6-1.1-1-1.6-1-.6 0-.7.4-.4 1m13.3-.3c.6.2 1.8.2 2.5 0 .6-.3.1-.5-1.3-.5s-1.9.2-1.2.5M151 288c.8.5 2 1 2.5 1 .6 0 .3-.5-.5-1s-1.9-1-2.5-1c-.5 0-.3.5.5 1m-39.5 17.2-5 5.3 5.3-5c4.8-4.6 5.7-5.5 4.9-5.5-.1 0-2.5 2.4-5.2 5.2m-15.6-1.5c-1.3 1.6-1.2 1.7.4.4.9-.7 1.7-1.5 1.7-1.7 0-.8-.8-.3-2.1 1.3m22.5.5-1.9 2.3 2.3-1.9c2.1-1.8 2.7-2.6 1.9-2.6-.2 0-1.2 1-2.3 2.2m-.9 5-5 5.3 5.3-5c4.8-4.6 5.7-5.5 4.9-5.5-.1 0-2.5 2.4-5.2 5.2m-28.6 2.5c-1.3 1.6-1.2 1.7.4.4s2.1-2.1 1.3-2.1c-.2 0-1 .8-1.7 1.7m20.5 1.5-1.9 2.3 2.3-1.9c1.2-1.1 2.2-2.1 2.2-2.3 0-.8-.8-.2-2.6 1.9m.5 4.5c-1.3 1.6-1.2 1.7.4.4.9-.7 1.7-1.5 1.7-1.7 0-.8-.8-.3-2.1 1.3M98 338c-.9.6-1 1-.3 1 .6 0 1.5-.5 1.8-1 .8-1.2.4-1.2-1.5 0m-26 8c0 .5.5 1 1.1 1 .5 0 .7-.5.4-1-.3-.6-.8-1-1.1-1-.2 0-.4.4-.4 1"/><g fill="#80BFBF" stroke-width="0"><path d="M144 279.5c-26.2 5-47.7 19.9-61.5 42.7-5 8.3-10.5 22.1-9.3 23.4.4.4 4.4-.6 8.9-2.2l8.2-2.9 2.2-6.1c8.1-21.8 26.1-39.7 48.2-48 9.1-3.4 24.2-5.7 33.8-5l8 .5-5.5-1.4c-8.3-2.2-24.2-2.7-33-1"/><path d="M165.8 285.7c1.8.2 4.5.2 6 0s0-.4-3.3-.4-4.5.2-2.7.4m-17.6 2.9c-16.4 4.8-29.1 13.4-39.9 26.9-5.3 6.6-12.3 19.3-12.3 22.3s3.1-.7 6.9-8.4c10.3-20.6 31.2-37 53.4-41.8 3.9-.9 5.1-1.4 3.2-1.4-1.6-.1-6.7 1-11.3 2.4"/></g><path fill="#BFBFBF" fill-opacity=".1" d="m217.6 305.8-1.9 2.7 2.4-2.2c1.2-1.2 2.1-2.4 1.8-2.7-.2-.2-1.3.8-2.3 2.2m70.1 1.9c-.4.3-.7 3.5-.7 7 0 4.9-.3 6.2-1.2 5.7-.8-.5-.7 0 .2 1.1 1.4 1.8 1.5 1.7 1.7-.6.3-2.9.8-13.9.7-13.9 0 0-.4.3-.7.7m7.3 14.1.5 14.7.3-13.9c.1-7.7-.1-14.3-.5-14.7-.4-.5-.6 5.8-.3 13.9m116-2 .5 12.7.3-11.9c.1-6.6-.1-12.3-.5-12.7-.4-.5-.6 4.9-.3 11.9M269.4 322c0 8 .2 11.2.3 7.2.2-3.9.2-10.5 0-14.5-.1-3.9-.3-.7-.3 7.3m96.5-12.3c-1.3 1.6-1.2 1.7.4.4s2.1-2.1 1.3-2.1c-.2 0-1 .8-1.7 1.7m-158.5 5.5-1.9 2.3 2.3-1.9c2.1-1.8 2.7-2.6 1.9-2.6-.2 0-1.2 1-2.3 2.2M383 317l-3.5.7 3.2.2c1.7 0 3.5-.4 3.8-.9.3-.6.5-.9.3-.9-.2.1-1.9.5-3.8.9m144.8 2.7c.6.2 1.8.2 2.5 0 .6-.3.1-.5-1.3-.5s-1.9.2-1.2.5M383 321.4c0 .2.8 1 1.8 1.7 1.5 1.3 1.6 1.2.3-.4s-2.1-2.1-2.1-1.3m-185.1 2.3c-1.3 1.6-1.2 1.7.4.4.9-.7 1.7-1.5 1.7-1.7 0-.8-.8-.3-2.1 1.3m-10 9c-1.3 1.6-1.2 1.7.4.4.9-.7 1.7-1.5 1.7-1.7 0-.8-.8-.3-2.1 1.3m-10 9c-1.3 1.6-1.2 1.7.4.4.9-.7 1.7-1.5 1.7-1.7 0-.8-.8-.3-2.1 1.3m-43.4 5.4c-.4.6-.5 1.2-.2 1.5.2.3.7-.2 1-1.1.7-1.7.1-2-.8-.4"/><path fill="#BFBFBF" fill-opacity=".2" d="M215.8 303.7c.6.2 1.8.2 2.5 0 .6-.3.1-.5-1.3-.5s-1.9.2-1.2.5m14.5 4c.9.2 2.5.2 3.5 0 .9-.3.1-.5-1.8-.5s-2.7.2-1.7.5m26 0c.9.2 2.5.2 3.5 0 .9-.3.1-.5-1.8-.5s-2.7.2-1.7.5m15 0c.9.2 2.5.2 3.5 0 .9-.3.1-.5-1.8-.5s-2.7.2-1.7.5m19 0c.9.2 2.3.2 3 0 .6-.3-.1-.5-1.8-.5-1.6 0-2.2.2-1.2.5m17.5 0c3.4.2 9 .2 12.5 0 3.4-.2.6-.3-6.3-.3s-9.7.1-6.2.3m35.5 0c.9.2 2.5.2 3.5 0 .9-.3.1-.5-1.8-.5s-2.7.2-1.7.5m64.5 0c.7.3 1.6.2 1.9-.1.4-.3-.2-.6-1.3-.5-1.1 0-1.4.3-.6.6m34 0c.7.3 1.6.2 1.9-.1.4-.3-.2-.6-1.3-.5-1.1 0-1.4.3-.6.6m19 0c.6.2 1.8.2 2.5 0 .6-.3.1-.5-1.3-.5s-1.9.2-1.2.5m21 0c.7.3 1.6.2 1.9-.1.4-.3-.2-.6-1.3-.5-1.1 0-1.4.3-.6.6m17.8.2c-.4.5.3.7 1.4.4 2.3-.6 2.6-1.3.6-1.3-.8 0-1.7.4-2 .9m24.6-.3c1.3.4 1.8 1.9 2.1 6.2l.4 5.7-.1-6c-.1-5.2-.4-6-2.1-6.2-1.5-.1-1.5 0-.3.3m16.8.1c.8.3 1.9 1.1 2.3 1.7.6.7.7.6.4-.4-.2-.8-1.2-1.6-2.3-1.7-1.3-.2-1.5-.1-.4.4m-305.6 11.8c0 6 .1 8.4.3 5.2s.2-8.1 0-11-.3-.3-.3 5.8m26 3c0 7.7.2 10.7.3 6.7.2-4 .2-10.3 0-14s-.3-.4-.3 7.3m145 0c0 7.7.2 10.7.3 6.7.2-4 .2-10.3 0-14s-.3-.4-.3 7.3m-195.5-10.8c-1.3 1.6-1.2 1.7.4.4.9-.7 1.7-1.5 1.7-1.7 0-.8-.8-.3-2.1 1.3m92.9 3c1.2.2 3.2.2 4.5 0 1.2-.2.2-.4-2.3-.4s-3.5.2-2.2.4m16 0c1.2.2 3.2.2 4.5 0 1.2-.2.2-.4-2.3-.4s-3.5.2-2.2.4m-118.9 6c-1.3 1.6-1.2 1.7.4.4.9-.7 1.7-1.5 1.7-1.7 0-.8-.8-.3-2.1 1.3m325.4 9.8c0 3.3.2 4.5.4 2.7s.2-4.5 0-6-.4 0-.4 3.3m-52 .5c0 3 .2 4.3.4 2.7.2-1.5.2-3.9 0-5.5-.2-1.5-.4-.2-.4 2.8m-283.4-1.3c-1.3 1.6-1.2 1.7.4.4.9-.7 1.7-1.5 1.7-1.7 0-.8-.8-.3-2.1 1.3m247.8 1c1.8.2 5 .2 7 0 2.1-.2.7-.4-3.2-.4-3.8 0-5.5.2-3.8.4m60.1 0c1.7.2 4.7.2 6.5 0 1.7-.2.3-.4-3.3-.4s-5 .2-3.2.4m-84 2c1.7.2 4.7.2 6.5 0 1.7-.2.3-.4-3.3-.4s-5 .2-3.2.4m-30.9 2c-1.3 1.6-1.2 1.7.4.4s2.1-2.1 1.3-2.1c-.2 0-1 .8-1.7 1.7m-203 4c-1.3 1.6-1.2 1.7.4.4.9-.7 1.7-1.5 1.7-1.7 0-.8-.8-.3-2.1 1.3m193.4-1c.9.2 2.3.2 3 0 .6-.3-.1-.5-1.8-.5-1.6 0-2.2.2-1.2.5m-293.6 11c5.1.2 13.5.2 18.5 0 5.1-.1 1-.3-9.2-.3s-14.3.2-9.3.3m62.5 0c4.8.2 12.9.2 18 0 5.1-.1 1.2-.3-8.7-.3s-14.1.2-9.3.3"/><path fill="#BFBFBF" fill-opacity=".3" d="M199.6 311.2c.3.5 1 .6 1.5.3 1.3-.9 1.1-1.2-.6-1.2-.8 0-1.2.4-.9.9m110.8 14.3c0 6 .1 8.4.3 5.2s.2-8.1 0-11-.3-.3-.3 5.8m7 0c0 6 .1 8.4.3 5.2s.2-8.1 0-11-.3-.3-.3 5.8m-134.6-5.8c.7.3 1.6.2 1.9-.1.4-.3-.2-.6-1.3-.5-1.1 0-1.4.3-.6.6m182.2.7c0 .2.8 1 1.8 1.7 1.5 1.3 1.6 1.2.3-.4s-2.1-2.1-2.1-1.3"/><path fill="#BFBFBF" fill-opacity=".4" d="M207.8 304.7c.7.3 1.6.2 1.9-.1.4-.3-.2-.6-1.3-.5-1.1 0-1.4.3-.6.6m93.4 6.3c0 1.4.2 1.9.5 1.2.2-.6.2-1.8 0-2.5-.3-.6-.5-.1-.5 1.3m25 0c0 1.4.2 1.9.5 1.2.2-.6.2-1.8 0-2.5-.3-.6-.5-.1-.5 1.3m-132.4 2.7c.7.3 1.6.2 1.9-.1.4-.3-.2-.6-1.3-.5-1.1 0-1.4.3-.6.6m-15.5 6c.9.2 2.3.2 3 0 .6-.3-.1-.5-1.8-.5-1.6 0-2.2.2-1.2.5m262 7c1.5.2 3.7.2 5 0 1.2-.2 0-.4-2.8-.4-2.7 0-3.8.2-2.2.4m59 0c1.5.2 3.7.2 5 0 1.2-.2 0-.4-2.8-.4-2.7 0-3.8.2-2.2.4m-252.2 6.5-.1 2.7-9.2.4-9.3.3 9.3.2c9.7.2 11-.3 9.9-4.5q-.45-1.8-.6.9m127.7-1.5c.7.3 1.6.2 1.9-.1.4-.3-.2-.6-1.3-.5-1.1 0-1.4.3-.6.6m76.9 4.5c.2.5 1 .8 1.8.8s1.6-.3 1.8-.8c.3-.4-.5-.7-1.8-.7s-2.1.3-1.8.7m-195.4.5c.9.2 2.3.2 3 0 .6-.3-.1-.5-1.8-.5-1.6 0-2.2.2-1.2.5m16 0c.9.2 2.3.2 3 0 .6-.3-.1-.5-1.8-.5-1.6 0-2.2.2-1.2.5m18 0c.9.2 2.3.2 3 0 .6-.3-.1-.5-1.8-.5-1.6 0-2.2.2-1.2.5m22 0c.9.2 2.5.2 3.5 0 .9-.3.1-.5-1.8-.5s-2.7.2-1.7.5m20 0c.9.2 2.5.2 3.5 0 .9-.3.1-.5-1.8-.5s-2.7.2-1.7.5m22 0c.9.2 2.5.2 3.5 0 .9-.3.1-.5-1.8-.5s-2.7.2-1.7.5m57.5 0c2.3.2 6.1.2 8.5 0 2.3-.2.4-.4-4.3-.4s-6.6.2-4.2.4m78 0c.7.3 1.6.2 1.9-.1.4-.3-.2-.6-1.3-.5-1.1 0-1.4.3-.6.6m23 0c.7.3 1.6.2 1.9-.1.4-.3-.2-.6-1.3-.5-1.1 0-1.4.3-.6.6m29 0c.7.3 1.6.2 1.9-.1.4-.3-.2-.6-1.3-.5-1.1 0-1.4.3-.6.6"/><path fill="#BFBFBF" fill-opacity=".5" d="M210.8 304.7c.7.3 1.6.2 1.9-.1.4-.3-.2-.6-1.3-.5-1.1 0-1.4.3-.6.6m163 3c.6.2 1.8.2 2.5 0 .6-.3.1-.5-1.3-.5s-1.9.2-1.2.5m-145.4 14.8c0 7.7.2 10.7.3 6.7.2-4 .2-10.3 0-14s-.3-.4-.3 7.3m26 0c0 7.7.2 10.7.3 6.7.2-4 .2-10.3 0-14s-.3-.4-.3 7.3m268 0c0 7.7.2 10.7.3 6.7.2-4 .2-10.3 0-14s-.3-.4-.3 7.3M364.2 316c0 1.4.2 1.9.5 1.2.2-.6.2-1.8 0-2.5-.3-.6-.5-.1-.5 1.3m-87.8 5.3c-.3.8-.3 4.5-.1 8.3l.3 6.9.2-7.8c.1-5.6.5-7.6 1.4-7.1.7.4.8.3.4-.4-.9-1.6-1.5-1.5-2.2.1m254.4 2.4c.7.3 1.6.2 1.9-.1.4-.3-.2-.6-1.3-.5-1.1 0-1.4.3-.6.6M345 326l-3.5.7 3.2.2c1.7 0 3.5-.4 3.8-.9.3-.6.5-.9.3-.9-.2.1-1.9.5-3.8.9m20 1.4c0 .2 1.3.6 2.9.8 1.7.2 2.8.1 2.5-.4-.5-.8-5.4-1.2-5.4-.4m105.3 4.1c0 2.7.2 3.8.4 2.2.2-1.5.2-3.7 0-5-.2-1.2-.4 0-.4 2.8m-231.5-.8c1.8.2 4.5.2 6 0s0-.4-3.3-.4-4.5.2-2.7.4m103.5 1c1.5.2 3.9.2 5.5 0 1.5-.2.2-.4-2.8-.4s-4.3.2-2.7.4"/><path fill="#BFBFBF" fill-opacity=".6" d="M270.4 322.5c0 7.7.2 10.7.3 6.7.2-4 .2-10.3 0-14s-.3-.4-.3 7.3m17.9-6c0 4.4.2 6.1.4 3.7.2-2.3.2-5.9 0-8-.2-2-.4-.1-.4 4.3m6.1 6c0 7.7.2 10.7.3 6.7.2-4 .2-10.3 0-14s-.3-.4-.3 7.3m116-2c0 6.6.1 9.2.3 5.7.2-3.4.2-8.8 0-12-.2-3.1-.3-.3-.3 6.3m-29.1-3.8c.9.2 2.3.2 3 0 .6-.3-.1-.5-1.8-.5-1.6 0-2.2.2-1.2.5m146.5 4c.6.2 1.8.2 2.5 0 .6-.3.1-.5-1.3-.5s-1.9.2-1.2.5m0 3c.7.3 1.6.2 1.9-.1.4-.3-.2-.6-1.3-.5-1.1 0-1.4.3-.6.6"/><path fill="#BFBFBF" fill-opacity=".7" d="M215.8 304.7c.7.3 1.6.2 1.9-.1.4-.3-.2-.6-1.3-.5-1.1 0-1.4.3-.6.6m-12.2 3.8c-.9 2.6-.7 3.2.5 1.2.6-1 .9-2.1.6-2.3-.2-.3-.7.2-1.1 1.1m8.3 1.2c-1.3 1.6-1.2 1.7.4.4s2.1-2.1 1.3-2.1c-.2 0-1 .8-1.7 1.7m22.5 9.8c0 6 .1 8.4.3 5.2s.2-8.1 0-11-.3-.3-.3 5.8m26 3c0 7.7.2 10.7.3 6.7.2-4 .2-10.3 0-14s-.3-.4-.3 7.3m147 0c0 7.7.2 10.7.3 6.7.2-4 .2-10.3 0-14s-.3-.4-.3 7.3m117.9-8.5c0 3 .2 4.3.4 2.7.2-1.5.2-3.9 0-5.5-.2-1.5-.4-.2-.4 2.8m-221.5-.3c1.2.2 3.2.2 4.5 0 1.2-.2.2-.4-2.3-.4s-3.5.2-2.2.4m16 0c1.2.2 3.2.2 4.5 0 1.2-.2.2-.4-2.3-.4s-3.5.2-2.2.4m-117.9 5c-1.3 1.6-1.2 1.7.4.4.9-.7 1.7-1.5 1.7-1.7 0-.8-.8-.3-2.1 1.3m-17.1 0c.7.3 1.6.2 1.9-.1.4-.3-.2-.6-1.3-.5-1.1 0-1.4.3-.6.6m101.9 5.4c.7.7 1.5 1 1.8.7s-.2-.9-1.2-1.2c-1.4-.6-1.5-.5-.6.5m238.7.3c-.3.7-.4 3.8-.2 6.7l.3 5.4.5-6.8c.5-6.7.4-7.9-.6-5.3m-333.5 3.3c-1.3 1.6-1.2 1.7.4.4.9-.7 1.7-1.5 1.7-1.7 0-.8-.8-.3-2.1 1.3m281.4 3.3c0 3 .2 4.3.4 2.7.2-1.5.2-3.9 0-5.5-.2-1.5-.4-.2-.4 2.8m-34.6-1.3c1.8.2 5 .2 7 0 2.1-.2.7-.4-3.2-.4-3.8 0-5.5.2-3.8.4m60.1 0c1.7.2 4.7.2 6.5 0 1.7-.2.3-.4-3.3-.4s-5 .2-3.2.4m-87.9 3.6c.4.4 3.7.7 7.2.5l6.4-.3-7.2-.5c-4-.3-6.8-.1-6.4.3m-229 3.4c-1.3 1.6-1.2 1.7.4.4s2.1-2.1 1.3-2.1c-.2 0-1 .8-1.7 1.7m-10 9c-1.3 1.6-1.2 1.7.4.4.9-.7 1.7-1.5 1.7-1.7 0-.8-.8-.3-2.1 1.3m-88.6 2c4.8.2 12.5.2 17 0 4.5-.1.6-.3-8.8-.3-9.3 0-13 .2-8.2.3m62 0c4.8.2 12.5.2 17 0 4.5-.1.6-.3-8.8-.3-9.3 0-13 .2-8.2.3"/><path fill="#BFBFBF" fill-opacity=".8" d="M205.5 306c.3.5.8 1 1.1 1 .2 0 .4-.5.4-1 0-.6-.5-1-1.1-1-.5 0-.7.4-.4 1m9.4.7c-1.3 1.6-1.2 1.7.4.4s2.1-2.1 1.3-2.1c-.2 0-1 .8-1.7 1.7m15.4 2c.9.2 2.3.2 3 0 .6-.3-.1-.5-1.8-.5-1.6 0-2.2.2-1.2.5m26 0c.9.2 2.3.2 3 0 .6-.3-.1-.5-1.8-.5-1.6 0-2.2.2-1.2.5m15.5 0c.6.2 1.8.2 2.5 0 .6-.3.1-.5-1.3-.5s-1.9.2-1.2.5m18.5 0c.9.2 2.3.2 3 0 .6-.3-.1-.5-1.8-.5-1.6 0-2.2.2-1.2.5m18 0c3.1.2 8.3.2 11.5 0 3.1-.2.5-.3-5.8-.3s-8.9.1-5.7.3m35.5 0c.6.2 1.8.2 2.5 0 .6-.3.1-.5-1.3-.5s-1.9.2-1.2.5m157.2-.3c0 .2.7.7 1.6 1 .8.3 1.2.2.9-.4-.6-1-2.5-1.4-2.5-.6m-296.1 7.3c-1.3 1.6-1.2 1.7.4.4.9-.7 1.7-1.5 1.7-1.7 0-.8-.8-.3-2.1 1.3m106.5 9.8c0 6 .1 8.4.3 5.2s.2-8.1 0-11-.3-.3-.3 5.8m5 0c0 6 .1 8.4.3 5.2s.2-8.1 0-11-.3-.3-.3 5.8m-134.6-6.8c.7.3 1.6.2 1.9-.1.4-.3-.2-.6-1.3-.5-1.1 0-1.4.3-.6.6m94.2.7c0 .2.7.7 1.6 1 .8.3 1.2.2.9-.4-.6-1-2.5-1.4-2.5-.6m-81.1 5.3c-1.3 1.6-1.2 1.7.4.4.9-.7 1.7-1.5 1.7-1.7 0-.8-.8-.3-2.1 1.3m-10 9c-1.3 1.6-1.2 1.7.4.4.9-.7 1.7-1.5 1.7-1.7 0-.8-.8-.3-2.1 1.3m-91.3 7.2c-.4.5.3.7 1.4.4 2.3-.6 2.6-1.3.6-1.3-.8 0-1.7.4-2 .9m81.3 1.8c-1.3 1.6-1.2 1.7.4.4s2.1-2.1 1.3-2.1c-.2 0-1 .8-1.7 1.7"/><g fill="#BFBFBF" fill-opacity=".9" stroke-opacity=".9" stroke-width="0"><path d="M207.8 305.7c.7.3 1.6.2 1.9-.1.4-.3-.2-.6-1.3-.5-1.1 0-1.4.3-.6.6m-5.7 1.9c0 1.1.3 1.4.6.6.3-.7.2-1.6-.1-1.9-.3-.4-.6.2-.5 1.3m7.3 3.6-2.9 3.3 3.3-2.9c3-2.8 3.7-3.6 2.9-3.6-.2 0-1.6 1.5-3.3 3.2m-5.8-.5c-.6 1.4-.5 1.5.5.6.7-.7 1-1.5.7-1.8s-.9.2-1.2 1.2m98.6.3c0 1.4.2 1.9.5 1.2.2-.6.2-1.8 0-2.5-.3-.6-.5-.1-.5 1.3m23 0c0 1.4.2 1.9.5 1.2.2-.6.2-1.8 0-2.5-.3-.6-.5-.1-.5 1.3m136.4-.8c.3.5 1 .6 1.5.3 1.3-.9 1.1-1.2-.6-1.2-.8 0-1.2.4-.9.9m-21.6.5c0 2 3.7 3.5 4.3 1.8.4-.9.1-1.2-1-.8-.8.3-1.9 0-2.4-.8-.6-.9-.9-1-.9-.2m39.7-.1c-.3.3-.3 1.3 0 2.2.5 1.1.3 1.3-.7.7q-1.35-.75-.6.3c1 1.6 1.4 1.5 2.6-.7.9-1.9 0-3.7-1.3-2.5m-16.1 1.2c-.3.5.1.9.9.9s1.2-.4.9-.9c-.3-.4-.7-.8-.9-.8s-.6.4-.9.8m76 .5c.3 1 .9 1.5 1.2 1.2s0-1.1-.7-1.8c-1-.9-1.1-.8-.5.6m-262.6.1c0 .2.8 1 1.8 1.7 1.5 1.3 1.6 1.2.3-.4s-2.1-2.1-2.1-1.3m106.6.9c.3 1 .9 1.5 1.2 1.2s0-1.1-.7-1.8c-1-.9-1.1-.8-.5.6m116-.1c.3.4 1.1.5 1.9.1 2.1-.7 1.9-1.2-.4-1-1.1 0-1.8.5-1.5.9m4 .5c-.6 1.4-.5 1.5.5.6.7-.7 1-1.5.7-1.8s-.9.2-1.2 1.2m-64 .6c.3 1 .9 1.5 1.2 1.2s0-1.1-.7-1.8c-1-.9-1.1-.8-.5.6m5 .4c-.6 1.4-.5 1.5.5.6.7-.7 1-1.5.7-1.8s-.9.2-1.2 1.2m93.4-.8c0 .6.4 1.3 1 1.6s.7-.1.4-.9c-.7-1.8-1.4-2.1-1.4-.7m-73.4 1.3c.3.5 1 .6 1.5.3 1.3-.9 1.1-1.2-.6-1.2-.8 0-1.2.4-.9.9m34 .1c.3 1 .9 1.5 1.2 1.2s0-1.1-.7-1.8c-1-.9-1.1-.8-.5.6m-155.1.8c-1.1 1.6-.1 1.9 1.3.3.7-.8.8-1.4.3-1.4s-1.3.5-1.6 1.1m94.5-.2c0 .6.4 1.3 1 1.6s.7-.1.4-.9c-.7-1.8-1.4-2.1-1.4-.7m38 1c-.5 1.1-.6 2.2-.1 2.5 1.3.8 2-.4 1.4-2.2-.5-1.1-.3-1.3.7-.7q1.35.75.6-.3c-1-1.6-1.4-1.5-2.6.7m-30.5.2c-.4.6-.5 1.2-.2 1.5.2.3.7-.2 1-1.1.7-1.7.1-2-.8-.4m21-.1c-.6.9-.4 1.1.5.5 1-.6 1.2-.4.7.8-.3.9-.2 1.9.3 2.2 1.5.9 2-1.1.6-3-1-1.4-1.5-1.5-2.1-.5m30.5-.1c0 .6.4 1.3 1 1.6s.7-.1.4-.9c-.7-1.8-1.4-2.1-1.4-.7m-297.6 3.3-2.9 3.3 3.3-2.9c3-2.8 3.7-3.6 2.9-3.6-.2 0-1.6 1.5-3.3 3.2m171.8-1.6c1 1 2 1.6 2.2 1.3.3-.3-.5-1.1-1.7-1.8-2.1-1.3-2.1-1.2-.5.5m-95.2-.2c0 .2.7.7 1.6 1 .8.3 1.2.2.9-.4-.6-1-2.5-1.4-2.5-.6m170.6 1.3c-.6 1.4-.5 1.5.5.6.7-.7 1-1.5.7-1.8s-.9.2-1.2 1.2m87.9-.1c-1 .8-1.3 1.4-.7 1.4.7 0 1.2.4 1.2.9s-.9.7-2 .4-2-.3-2 0c0 .2.9.7 2 1 1.3.3 2.4-.3 3.4-1.9 1.9-2.8.8-3.8-1.9-1.8m-252.5-.2c0 .2.8 1 1.8 1.7 1.5 1.3 1.6 1.2.3-.4s-2.1-2.1-2.1-1.3m84 0c0 .2.8 1 1.8 1.7 1.5 1.3 1.6 1.2.3-.4s-2.1-2.1-2.1-1.3m130.6.9c.3 1 .9 1.5 1.2 1.2s0-1.1-.7-1.8c-1-.9-1.1-.8-.5.6M281 324c1.2 1.6 2.4 3 2.6 3 .3 0-.4-1.4-1.6-3-1.2-1.7-2.4-3-2.6-3-.3 0 .4 1.3 1.6 3m166.5-1.9c-.4.6-.5 1.2-.2 1.5.2.3.7-.2 1-1.1.7-1.7.1-2-.8-.4m22.1-.3c-.3.5.1.9.9.9s1.2-.4.9-.9c-.3-.4-.7-.8-.9-.8s-.6.4-.9.8m25.4.1c0 .6.4 1.3 1 1.6s.7-.1.4-.9c-.7-1.8-1.4-2.1-1.4-.7m-60 1c0 .6.4 1.3 1 1.6s.7-.1.4-.9c-.7-1.8-1.4-2.1-1.4-.7m38.3 1.2c-.2 2.3.3 2.5 1 .4.4-.8.3-1.6-.1-1.9s-.9.4-.9 1.5m34.2-1c-.4.6-.5 1.2-.2 1.5.2.3.7-.2 1-1.1.7-1.7.1-2-.8-.4m-221.3 1.5c1 1 2 1.6 2.2 1.3.3-.3-.5-1.1-1.7-1.8-2.1-1.3-2.1-1.2-.5.5"/><path d="M448.5 324.9c-.5 1.7-1.6 2.1-6.8 2.4l-6.2.3 6.6.2c6.1.2 6.7 0 7.2-2 .8-2.8.1-3.6-.8-.9m46.2.8c.5 2.1 1 2.3 7.2 2.1l6.6-.2-5.9-.3c-4.1-.3-6.4-.9-7.2-2.1-1.2-1.5-1.2-1.5-.7.5m-115.1.6c.3 1 .9 1.5 1.2 1.2s0-1.1-.7-1.8c-1-.9-1.1-.8-.5.6m-190.2 2.9-2.9 3.3 3.3-2.9c3-2.8 3.7-3.6 2.9-3.6-.2 0-1.6 1.5-3.3 3.2m195.8-.7c0 1.6.2 2.2.5 1.2.2-.9.2-2.3 0-3-.3-.6-.5.1-.5 1.8m151.4-1.7c-.3.5.1.9.9.9s1.2-.4.9-.9c-.3-.4-.7-.8-.9-.8s-.6.4-.9.8M433 327.9c0 .6.4 1.3 1 1.6s.7-.1.4-.9c-.7-1.8-1.4-2.1-1.4-.7m-149 .5c0 .2.8 1 1.8 1.7 1.5 1.3 1.6 1.2.3-.4s-2.1-2.1-2.1-1.3m208.6 1.8c.3.5 1 .6 1.5.3 1.3-.9 1.1-1.2-.6-1.2-.8 0-1.2.4-.9.9m18 .5c-.6 1.4-.5 1.5.5.6.7-.7 1-1.5.7-1.8s-.9.2-1.2 1.2m27.5.5c.9 1.6 2.9 1.7 2.9.2 0-.3-.5-.2-1.2.2-.7.5-.9.2-.6-.8.4-.8 0-1.5-.7-1.5-1 0-1.1.5-.4 1.9m-105.5.1c.3 1 .9 1.5 1.2 1.2s0-1.1-.7-1.8c-1-.9-1.1-.8-.5.6m19 .4c-.6 1.4-.5 1.5.5.6.7-.7 1-1.5.7-1.8s-.9.2-1.2 1.2m-205.4 1.8c0 1.6.2 2.2.5 1.2.2-.9.2-2.3 0-3-.3-.6-.5.1-.5 1.8m128.1-.8c.9.2 2.3.2 3 0 .6-.3-.1-.5-1.8-.5-1.6 0-2.2.2-1.2.5m8.6 1c-1.3 1.6-1.2 1.7.4.4s2.1-2.1 1.3-2.1c-.2 0-1 .8-1.7 1.7m48.1-.8c0 .6.4 1.3 1 1.6s.7-.1.4-.9c-.7-1.8-1.4-2.1-1.4-.7m80.5.2c-.4.6-.5 1.2-.2 1.5.2.3.7-.2 1-1.1.7-1.7.1-2-.8-.4m-59 1c-.4.6-.5 1.2-.2 1.5.2.3.7-.2 1-1.1.7-1.7.1-2-.8-.4m37.5-.2c0 .6.4 1.3 1 1.6s.7-.1.4-.9c-.7-1.8-1.4-2.1-1.4-.7m50.6-.1c-.3.5.1.9.9.9s1.2-.4.9-.9c-.3-.4-.7-.8-.9-.8s-.6.4-.9.8m-361.2 4.4-2.9 3.3 3.3-2.9c3-2.8 3.7-3.6 2.9-3.6-.2 0-1.6 1.5-3.3 3.2M97 340.1c0 .5.5.7 1 .4.6-.3 1-.8 1-1.1 0-.2-.4-.4-1-.4-.5 0-1 .5-1 1.1M84.5 344c-.3.5-.1 1 .4 1 .6 0 1.1-.5 1.1-1 0-.6-.2-1-.4-1-.3 0-.8.4-1.1 1m-3 1c-.3.5-.1 1 .4 1 .6 0 1.1-.5 1.1-1 0-.6-.2-1-.4-1-.3 0-.8.4-1.1 1m89.4.7c-1.3 1.6-1.2 1.7.4.4.9-.7 1.7-1.5 1.7-1.7 0-.8-.8-.3-2.1 1.3M78 346c0 .5.5 1 1 1 .6 0 1-.5 1-1 0-.6-.4-1-1-1-.5 0-1 .4-1 1"/></g><path fill="#BFBFBF" d="M209.7 307c-.3 1.1-1.2 2-2.1 2s-2.5.9-3.5 1.9c-3.1 3.1-15.1 5.6-15.1 3.2 0-1 9.1-5.1 11.4-5.1.9 0 1.6-.5 1.6-1.1s-.6-.9-1.2-.7c-.7.3-28.3 9.2-61.2 19.9l-59.9 19.4 13.8.3 13.8.3 10.6-4.5c50-21 57.2-23.7 63.7-24.3 5.3-.5 6.6-.3 6.2.7-.2.7-10.8 7-23.6 14-12.7 6.9-23.5 12.9-23.8 13.3-.4.4 6 .7 14.3.7h15l22.4-20.1c12.3-11.1 22.8-20.5 23.4-21 .5-.5-.4-.9-2.2-.9-2.2 0-3.2.5-3.6 2m161.3 2.3c-2.2.8-4 2.3-4.8 4.1-1.3 2.5-1.2 3.1.5 5.5 1.2 1.6 4.2 3.4 7.9 4.6 4.8 1.7 6 2.5 6.2 4.5.8 5-6.3 6.7-10.2 2.5-2.9-3.1-5.6-3.4-4.9-.4.9 3.5 6.1 6.1 11.1 5.6 5.5-.6 8.2-3 8.2-7.4 0-2.7-.6-3.7-3.1-5.2-1.7-1.1-4.6-2.2-6.4-2.5-4-.8-5.8-2.7-5.3-5.8.2-1.9 1-2.3 4.5-2.6 3.4-.3 4.4.1 5.3 1.7.6 1.2 1.9 2.1 3 2.1 1.7 0 1.8-.3.9-2.4-1.9-4.1-7.7-6.1-12.9-4.3m-142 13.2V336h8.5c8.4 0 8.5 0 8.5-2.5 0-2.4-.3-2.5-6-2.5h-6v-22h-5zm26 0V336h5v-27h-5zm16 0V336h2.5c2.5 0 2.5-.1 2.5-9 0-5 .4-9 .9-9 .4 0 3.7 4 7.2 9 9.1 12.9 9.9 12.6 9.9-4.5V309h-2.5c-2.5 0-2.5.1-2.5 8.5 0 4.7-.4 8.5-.9 8.5s-3.7-3.8-7.1-8.5c-4.1-5.6-6.8-8.5-8.1-8.5-1.8 0-1.9.8-1.9 13.5m32-11.5c0 1.7.7 2 4.5 2h4.5v11.5c0 10.8.1 11.5 2 11.5s2-.7 2-11.5V313h4.5c3.8 0 4.5-.3 4.5-2 0-1.9-.7-2-11-2s-11 .1-11 2m34.5 10.6c-2.7 7-5.1 13.1-5.3 13.5-.9 2.2 3.9.7 5-1.6 1-2.3 1.6-2.5 7.9-2.5 6.5 0 6.9.1 7.5 2.5.4 1.8 1.3 2.5 2.9 2.5 2.3 0 2.2-.3-2.9-13.3-4.5-11.6-5.4-13.2-7.6-13.5-2.3-.2-2.9.6-7.5 12.4m10.4-1.1c1.2 3.1 2.1 5.8 2.1 6 0 .3-2.3.5-5.1.5-4.8 0-5.1-.1-4.5-2.3 1-4.2 3.6-9.7 4.5-9.7.5 0 1.9 2.5 3 5.5m60.1 2V336h8c4.7 0 8-.4 8-1s-3-1-7-1h-7v-12.5c0-7.7-.4-12.5-1-12.5s-1 5.2-1 13.5m28.2-.4c-2.9 7.2-5.1 13.3-4.9 13.6.3.2 1-1.2 1.7-3.1l1.2-3.6H450l1.9 3.7c1.1 2.1 2 3.6 2.1 3.3.1-1.4-10.8-26.4-11.6-26.7-.5-.1-3.3 5.6-6.2 12.8m10.1-2.9c1.5 4 2.7 7.6 2.7 8 0 1.4-13 .9-13-.4 0-2.5 5.4-14.8 6.4-14.8.6 0 2.4 3.3 3.9 7.2m18.3-5.5c1.5 2.7 3.6 6.1 4.6 7.8 1.2 2 1.8 5 1.8 8.7 0 3.2.4 5.8 1 5.8s1-2.4 1-5.4c0-4.7.7-6.5 4.6-13.1 2.5-4.3 4.3-7.9 4.1-8.1s-2.1 2.8-4.3 6.6c-2.1 3.9-4.4 7-5.1 7s-3.1-3.2-5.3-7c-2.2-3.9-4.3-7-4.6-7s.7 2.1 2.2 4.7m35.4-2.2c-.5 1.3-2.6 6.4-4.6 11.2s-4 9.8-4.5 11c-1.4 3.7.1 2.6 1.7-1.2l1.4-3.5h15.9l1.2 3.5c.7 1.9 1.6 3.5 2 3.5s-1.8-6.1-4.9-13.5-6-13.5-6.4-13.5c-.5 0-1.3 1.1-1.8 2.5m5.4 6.7c3.9 9.5 3.8 9.8-3.9 9.8-3.6 0-6.5-.4-6.5-.9s.7-2.5 1.5-4.5 2.2-5.2 2.9-7.1c.8-1.9 1.9-3.5 2.4-3.5s2.1 2.8 3.6 6.2m17.6 4.3c0 8.3.4 13.5 1 13.5s1-2.8 1-6.5c0-6.1.1-6.5 2.3-6.5 1.2 0 3.2-.3 4.3-.6 1.9-.5 2.7.5 6 6.5 2.2 3.9 4.2 7.1 4.6 7.1s-1.1-3.2-3.4-7c-3.7-6.5-3.9-7.2-2.5-8.8 2.1-2.3 5.9-11.2 4.7-11.2-.4 0-1.1 1.3-1.5 2.8-.3 1.5-1.4 4.2-2.5 6-1.8 2.9-2.4 3.2-7 3.2h-5v-6c0-3.3-.4-6-1-6s-1 5.2-1 13.5"/></svg>